<mxfile host="app.diagrams.net" agent="Mozilla/5.0 (Windows NT 10.0; Win64; x64) AppleWebKit/537.36 (KHTML, like Gecko) Chrome/131.0.0.0 Safari/537.36" version="24.8.9">
  <diagram name="第 1 页" id="e-zxJt4wxlAHkeNJsyYx">
    <mxGraphModel dx="613" dy="846" grid="1" gridSize="10" guides="1" tooltips="1" connect="1" arrows="1" fold="1" page="1" pageScale="1" pageWidth="827" pageHeight="1169" math="0" shadow="0">
      <root>
        <mxCell id="0" />
        <mxCell id="1" parent="0" />
        <mxCell id="W710a-NeiL47UCuxfLzd-1" value="" style="edgeStyle=orthogonalEdgeStyle;rounded=0;orthogonalLoop=1;jettySize=auto;html=1;" edge="1" parent="1" source="W710a-NeiL47UCuxfLzd-2" target="W710a-NeiL47UCuxfLzd-8">
          <mxGeometry relative="1" as="geometry" />
        </mxCell>
        <UserObject label="&lt;div style=&quot;&quot;&gt;&lt;p style=&quot;text-align: center; margin: 0px; text-indent: 0px; vertical-align: middle; direction: ltr;&quot;&gt;SAP回传开始&lt;/p&gt;&lt;/div&gt;" tags="Background" id="W710a-NeiL47UCuxfLzd-2">
          <mxCell style="verticalAlign=middle;align=center;overflow=width;vsdxID=1;fillColor=#dae8fc;gradientColor=none;shape=stencil(hZJLEoIwDIZP06WdNtnAGvEejBTpiJQpRfH2UqMCLeoujy/Nn6QMs74uOsVA9M6as7rp0tUM9wxAt7Wy2k0Ww5xhVhmrTtYMbUl+V3jSWxdz9S+MVJfyJPFFIO4UEE/vQGyj2yUruITv8HGw9LKkpBTIIX3xclkgRthAPrE3hHFbXDPbMsORAjrUuYtlzhogZmA9CkZd8f8mf259MuZzVbpp6NrLfHjeKURfA/MH);strokeColor=#6688bc;strokeWidth=2;spacingTop=-3;spacingBottom=-3;spacingLeft=-3;spacingRight=-3;points=[];labelBackgroundColor=none;rounded=0;html=1;whiteSpace=wrap;fillOpacity=100;strokeOpacity=100;" vertex="1" parent="1">
            <mxGeometry x="924" y="83" width="100" height="40" as="geometry" />
          </mxCell>
        </UserObject>
        <mxCell id="W710a-NeiL47UCuxfLzd-3" style="edgeStyle=orthogonalEdgeStyle;rounded=0;orthogonalLoop=1;jettySize=auto;html=1;" edge="1" parent="1" source="W710a-NeiL47UCuxfLzd-4" target="W710a-NeiL47UCuxfLzd-10">
          <mxGeometry relative="1" as="geometry" />
        </mxCell>
        <UserObject label="&lt;div style=&quot;&quot;&gt;&lt;p style=&quot;text-align: center; margin: 0px; text-indent: 0px; vertical-align: middle; direction: ltr;&quot;&gt;选择一项流水，&lt;/p&gt;&lt;p style=&quot;text-align: center; margin: 0px; text-indent: 0px; vertical-align: middle; direction: ltr;&quot;&gt;点击&lt;span style=&quot;background-color: initial;&quot;&gt;人工上传SAP&lt;/span&gt;&lt;/p&gt;&lt;/div&gt;" tags="Background" id="W710a-NeiL47UCuxfLzd-4">
          <mxCell style="verticalAlign=middle;align=center;overflow=width;vsdxID=2;fillColor=#d5e8d4;gradientColor=none;shape=stencil(nZBRDoQgDERP03+WHsHFe5iISyOCQdT19kIaIxq//Jtp3zTpAFaTaUYNUkwx+F6v1EYD+AUpyRkdKCYFqACrzgf9C352LfuxyWRWg1/yhT/nRE5IsZWuZtCSK8CPeI0e/hF+jV7AJM4PO7KWCyr390bSiNtEtQM=);strokeColor=#93bd7c;strokeWidth=2;spacingTop=-3;spacingBottom=-3;spacingLeft=-3;spacingRight=-3;points=[];labelBackgroundColor=none;rounded=0;html=1;whiteSpace=wrap;" vertex="1" parent="1">
            <mxGeometry x="874" y="232" width="200" height="50" as="geometry" />
          </mxCell>
        </UserObject>
        <mxCell id="W710a-NeiL47UCuxfLzd-5" value="" style="edgeStyle=orthogonalEdgeStyle;rounded=0;orthogonalLoop=1;jettySize=auto;html=1;" edge="1" parent="1" source="W710a-NeiL47UCuxfLzd-6" target="W710a-NeiL47UCuxfLzd-11">
          <mxGeometry relative="1" as="geometry" />
        </mxCell>
        <UserObject label="&lt;div style=&quot;&quot;&gt;&lt;p style=&quot;font-size: 1px; text-align: center; margin: 0px; text-indent: 0px; vertical-align: middle; direction: ltr;&quot;&gt;&lt;font style=&quot;font-size:12px;font-family:0;color:#000000;direction:ltr;letter-spacing:0px;line-height:120%;opacity:1&quot;&gt;获取RFC返回值200，&lt;/font&gt;&lt;/p&gt;&lt;p style=&quot;font-size: 1px; text-align: center; margin: 0px; text-indent: 0px; vertical-align: middle; direction: ltr;&quot;&gt;&lt;font style=&quot;font-size:12px;font-family:0;color:#000000;direction:ltr;letter-spacing:0px;line-height:120%;opacity:1&quot;&gt;写入临时表中：&lt;/font&gt;&lt;/p&gt;&lt;p style=&quot;text-align: center; margin: 0px; text-indent: 0px; vertical-align: middle; direction: ltr;&quot;&gt;T_TRANS_SAP_PORPT&lt;/p&gt;&lt;/div&gt;" tags="Background" id="W710a-NeiL47UCuxfLzd-6">
          <mxCell style="verticalAlign=middle;align=center;overflow=width;vsdxID=4;fillColor=#d5e8d4;gradientColor=none;shape=stencil(nZBRDoQgDERP03+WHsHFe5iISyOCQdT19kIaIxq//Jtp3zTpAFaTaUYNUkwx+F6v1EYD+AUpyRkdKCYFqACrzgf9C352LfuxyWRWg1/yhT/nRE5IsZWuZtCSK8CPeI0e/hF+jV7AJM4PO7KWCyr390bSiNtEtQM=);strokeColor=#93bd7c;strokeWidth=2;spacingTop=-3;spacingBottom=-3;spacingLeft=-3;spacingRight=-3;points=[];labelBackgroundColor=none;rounded=0;html=1;whiteSpace=wrap;" vertex="1" parent="1">
            <mxGeometry x="874" y="693" width="200" height="50" as="geometry" />
          </mxCell>
        </UserObject>
        <mxCell id="W710a-NeiL47UCuxfLzd-7" style="edgeStyle=orthogonalEdgeStyle;rounded=0;orthogonalLoop=1;jettySize=auto;html=1;" edge="1" parent="1" source="W710a-NeiL47UCuxfLzd-8" target="W710a-NeiL47UCuxfLzd-4">
          <mxGeometry relative="1" as="geometry" />
        </mxCell>
        <UserObject label="&lt;div style=&quot;&quot;&gt;&lt;p style=&quot;text-align: center; margin: 0px; text-indent: 0px; vertical-align: middle; direction: ltr;&quot;&gt;用户选择WMS入库流水界面&lt;/p&gt;&lt;/div&gt;" tags="Background" id="W710a-NeiL47UCuxfLzd-8">
          <mxCell style="verticalAlign=middle;align=center;overflow=width;vsdxID=5;fillColor=#d5e8d4;gradientColor=none;shape=stencil(nZBRDoQgDERP03+WHsHFe5iISyOCQdT19kIaIxq//Jtp3zTpAFaTaUYNUkwx+F6v1EYD+AUpyRkdKCYFqACrzgf9C352LfuxyWRWg1/yhT/nRE5IsZWuZtCSK8CPeI0e/hF+jV7AJM4PO7KWCyr390bSiNtEtQM=);strokeColor=#93bd7c;strokeWidth=2;spacingTop=-3;spacingBottom=-3;spacingLeft=-3;spacingRight=-3;points=[];labelBackgroundColor=none;rounded=0;html=1;whiteSpace=wrap;" vertex="1" parent="1">
            <mxGeometry x="874" y="159" width="200" height="50" as="geometry" />
          </mxCell>
        </UserObject>
        <mxCell id="W710a-NeiL47UCuxfLzd-9" style="edgeStyle=orthogonalEdgeStyle;rounded=0;orthogonalLoop=1;jettySize=auto;html=1;" edge="1" parent="1" source="W710a-NeiL47UCuxfLzd-10" target="W710a-NeiL47UCuxfLzd-15">
          <mxGeometry relative="1" as="geometry" />
        </mxCell>
        <UserObject label="&lt;div style=&quot;font-size: 1px&quot;&gt;&lt;p style=&quot;text-align:center;margin-left:0;margin-right:0;margin-top:0px;margin-bottom:0px;text-indent:0;vertical-align:middle;direction:ltr;&quot;&gt;&lt;font style=&quot;font-size:12px;font-family:0;color:#000000;direction:ltr;letter-spacing:0px;line-height:120%;opacity:1&quot;&gt;WMS调用API Server，&lt;/font&gt;&lt;/p&gt;&lt;p style=&quot;text-align: center; margin: 0px; text-indent: 0px; vertical-align: middle; direction: ltr; font-size: 12px;&quot;&gt;&lt;font style=&quot;font-size:12px;font-family:0;color:#000000;direction:ltr;letter-spacing:0px;line-height:120%;opacity:1&quot;&gt;接口&lt;/font&gt;&lt;span style=&quot;font-size: 12px; letter-spacing: 0px; background-color: initial;&quot;&gt;：&lt;/span&gt;/api/transSapBill/SapUpLog&lt;/p&gt;&lt;p style=&quot;text-align: center; margin: 0px; text-indent: 0px; vertical-align: middle; direction: ltr; font-size: 12px;&quot;&gt;传入参数流水ID：OPERATE_IDs&lt;/p&gt;&lt;p style=&quot;text-align:center;margin-left:0;margin-right:0;margin-top:0px;margin-bottom:0px;text-indent:0;vertical-align:middle;direction:ltr;&quot;&gt;&lt;br&gt;&lt;/p&gt;&lt;/div&gt;" tags="Background" id="W710a-NeiL47UCuxfLzd-10">
          <mxCell style="verticalAlign=middle;align=center;overflow=width;vsdxID=6;fillColor=#d5e8d4;gradientColor=none;shape=stencil(nZBRDoQgDERP03+WHsHFe5iISyOCQdT19kIaIxq//Jtp3zTpAFaTaUYNUkwx+F6v1EYD+AUpyRkdKCYFqACrzgf9C352LfuxyWRWg1/yhT/nRE5IsZWuZtCSK8CPeI0e/hF+jV7AJM4PO7KWCyr390bSiNtEtQM=);strokeColor=#93bd7c;strokeWidth=2;spacingTop=-3;spacingBottom=-3;spacingLeft=-3;spacingRight=-3;points=[];labelBackgroundColor=none;rounded=0;html=1;" vertex="1" parent="1">
            <mxGeometry x="874" y="306" width="200" height="50" as="geometry" />
          </mxCell>
        </UserObject>
        <UserObject label="&lt;div style=&quot;font-size: 1px&quot;&gt;&lt;p style=&quot;text-align:center;margin-left:0;margin-right:0;margin-top:0px;margin-bottom:0px;text-indent:0;vertical-align:middle;direction:ltr;&quot;&gt;&lt;font style=&quot;font-size:12px;font-family:0;color:#000000;direction:ltr;letter-spacing:0px;line-height:120%;opacity:1&quot;&gt;SAP回传结束&lt;/font&gt;&lt;/p&gt;&lt;/div&gt;" tags="Background" id="W710a-NeiL47UCuxfLzd-11">
          <mxCell style="verticalAlign=middle;align=center;overflow=width;vsdxID=14;fillColor=#dae8fc;gradientColor=none;shape=stencil(hZJLEoIwDIZP06WdNtnAGvEejBTpiJQpRfH2UqMCLeoujy/Nn6QMs74uOsVA9M6as7rp0tUM9wxAt7Wy2k0Ww5xhVhmrTtYMbUl+V3jSWxdz9S+MVJfyJPFFIO4UEE/vQGyj2yUruITv8HGw9LKkpBTIIX3xclkgRthAPrE3hHFbXDPbMsORAjrUuYtlzhogZmA9CkZd8f8mf259MuZzVbpp6NrLfHjeKURfA/MH);strokeColor=#6688bc;strokeWidth=2;spacingTop=-3;spacingBottom=-3;spacingLeft=-3;spacingRight=-3;points=[];labelBackgroundColor=none;rounded=0;html=1;whiteSpace=wrap;" vertex="1" parent="1">
            <mxGeometry x="924" y="773" width="100" height="40" as="geometry" />
          </mxCell>
        </UserObject>
        <mxCell id="W710a-NeiL47UCuxfLzd-12" style="edgeStyle=orthogonalEdgeStyle;rounded=0;orthogonalLoop=1;jettySize=auto;html=1;" edge="1" parent="1" source="W710a-NeiL47UCuxfLzd-13" target="W710a-NeiL47UCuxfLzd-19">
          <mxGeometry relative="1" as="geometry" />
        </mxCell>
        <UserObject label="调用SAP RFC，&lt;br&gt;接口：/api/sap/SAP_01" tags="Background" id="W710a-NeiL47UCuxfLzd-13">
          <mxCell style="verticalAlign=middle;align=center;overflow=width;vsdxID=15;fillColor=#d5e8d4;gradientColor=none;shape=stencil(nZBRDoQgDERP03+WHsHFe5iISyOCQdT19kIaIxq//Jtp3zTpAFaTaUYNUkwx+F6v1EYD+AUpyRkdKCYFqACrzgf9C352LfuxyWRWg1/yhT/nRE5IsZWuZtCSK8CPeI0e/hF+jV7AJM4PO7KWCyr390bSiNtEtQM=);strokeColor=#93bd7c;strokeWidth=2;spacingTop=-3;spacingBottom=-3;spacingLeft=-3;spacingRight=-3;points=[];labelBackgroundColor=none;rounded=0;html=1;whiteSpace=wrap;" vertex="1" parent="1">
            <mxGeometry x="874" y="539" width="200" height="50" as="geometry" />
          </mxCell>
        </UserObject>
        <mxCell id="W710a-NeiL47UCuxfLzd-14" style="edgeStyle=orthogonalEdgeStyle;rounded=0;orthogonalLoop=1;jettySize=auto;html=1;" edge="1" parent="1" source="W710a-NeiL47UCuxfLzd-15" target="W710a-NeiL47UCuxfLzd-17">
          <mxGeometry relative="1" as="geometry" />
        </mxCell>
        <UserObject label="&lt;div style=&quot;&quot;&gt;&lt;p style=&quot;text-align: center; margin: 0px; text-indent: 0px; vertical-align: middle; direction: ltr;&quot;&gt;写入SAP中间表：&lt;/p&gt;&lt;p style=&quot;text-align: center; margin: 0px; text-indent: 0px; vertical-align: middle; direction: ltr;&quot;&gt;ZMES_MM_PORPT_boeh&lt;/p&gt;&lt;/div&gt;" tags="Background" id="W710a-NeiL47UCuxfLzd-15">
          <mxCell style="verticalAlign=middle;align=center;overflow=width;vsdxID=7;fillColor=#d5e8d4;gradientColor=none;shape=stencil(nZBRDoQgDERP03+WHsHFe5iISyOCQdT19kIaIxq//Jtp3zTpAFaTaUYNUkwx+F6v1EYD+AUpyRkdKCYFqACrzgf9C352LfuxyWRWg1/yhT/nRE5IsZWuZtCSK8CPeI0e/hF+jV7AJM4PO7KWCyr390bSiNtEtQM=);strokeColor=#93bd7c;strokeWidth=2;spacingTop=-3;spacingBottom=-3;spacingLeft=-3;spacingRight=-3;points=[];labelBackgroundColor=none;rounded=0;html=1;whiteSpace=wrap;" vertex="1" parent="1">
            <mxGeometry x="874" y="386" width="200" height="49" as="geometry" />
          </mxCell>
        </UserObject>
        <mxCell id="W710a-NeiL47UCuxfLzd-16" value="" style="edgeStyle=orthogonalEdgeStyle;rounded=0;orthogonalLoop=1;jettySize=auto;html=1;" edge="1" parent="1" source="W710a-NeiL47UCuxfLzd-17" target="W710a-NeiL47UCuxfLzd-13">
          <mxGeometry relative="1" as="geometry" />
        </mxCell>
        <UserObject label="&lt;div style=&quot;&quot;&gt;&lt;p style=&quot;text-align: center; margin: 0px; text-indent: 0px; vertical-align: middle; direction: ltr;&quot;&gt;插入接口日志到日志表中：&lt;/p&gt;&lt;p style=&quot;text-align: center; margin: 0px; text-indent: 0px; vertical-align: middle; direction: ltr;&quot;&gt;T_LOG_WMS_API&lt;/p&gt;&lt;/div&gt;" tags="Background" id="W710a-NeiL47UCuxfLzd-17">
          <mxCell style="verticalAlign=middle;align=center;overflow=width;vsdxID=7;fillColor=#d5e8d4;gradientColor=none;shape=stencil(nZBRDoQgDERP03+WHsHFe5iISyOCQdT19kIaIxq//Jtp3zTpAFaTaUYNUkwx+F6v1EYD+AUpyRkdKCYFqACrzgf9C352LfuxyWRWg1/yhT/nRE5IsZWuZtCSK8CPeI0e/hF+jV7AJM4PO7KWCyr390bSiNtEtQM=);strokeColor=#93bd7c;strokeWidth=2;spacingTop=-3;spacingBottom=-3;spacingLeft=-3;spacingRight=-3;points=[];labelBackgroundColor=none;rounded=0;html=1;whiteSpace=wrap;" vertex="1" parent="1">
            <mxGeometry x="874" y="463" width="200" height="49" as="geometry" />
          </mxCell>
        </UserObject>
        <mxCell id="W710a-NeiL47UCuxfLzd-18" style="edgeStyle=orthogonalEdgeStyle;rounded=0;orthogonalLoop=1;jettySize=auto;html=1;" edge="1" parent="1" source="W710a-NeiL47UCuxfLzd-19" target="W710a-NeiL47UCuxfLzd-6">
          <mxGeometry relative="1" as="geometry" />
        </mxCell>
        <UserObject label="&lt;div style=&quot;&quot;&gt;&lt;p style=&quot;text-align: center; margin: 0px; text-indent: 0px; vertical-align: middle; direction: ltr;&quot;&gt;将调用接口写入日志表中：&lt;/p&gt;&lt;p style=&quot;text-align: center; margin: 0px; text-indent: 0px; vertical-align: middle; direction: ltr;&quot;&gt;T_TRANS_ERP_LOG&lt;/p&gt;&lt;/div&gt;" tags="Background" id="W710a-NeiL47UCuxfLzd-19">
          <mxCell style="verticalAlign=middle;align=center;overflow=width;vsdxID=7;fillColor=#d5e8d4;gradientColor=none;shape=stencil(nZBRDoQgDERP03+WHsHFe5iISyOCQdT19kIaIxq//Jtp3zTpAFaTaUYNUkwx+F6v1EYD+AUpyRkdKCYFqACrzgf9C352LfuxyWRWg1/yhT/nRE5IsZWuZtCSK8CPeI0e/hF+jV7AJM4PO7KWCyr390bSiNtEtQM=);strokeColor=#93bd7c;strokeWidth=2;spacingTop=-3;spacingBottom=-3;spacingLeft=-3;spacingRight=-3;points=[];labelBackgroundColor=none;rounded=0;html=1;whiteSpace=wrap;" vertex="1" parent="1">
            <mxGeometry x="874" y="613" width="200" height="49" as="geometry" />
          </mxCell>
        </UserObject>
      </root>
    </mxGraphModel>
  </diagram>
</mxfile>
